
<svg width="64" height="64" viewBox="0 0 64 64" fill="none" xmlns="http://www.w3.org/2000/svg">
<g clip-path="url(#clip0_12025_5028)">
<path d="M43.9958 14.8022V42.9347H29.1859C28.024 38.7192 25.3038 36.3267 21.0585 35.6678C24.2611 31.5428 24.9555 27.0958 22.1746 22.6076C19.1805 17.7745 14.6258 16.4785 9.17509 17.8627C9.17509 17.0045 9.14988 16.1348 9.18082 15.2674C9.2404 13.5475 10.0047 12.1817 11.3476 11.1195C12.1302 10.5007 13.0469 10.2028 14.0036 10C22.3969 10 30.7901 10 39.1833 10C39.2624 10.0275 39.3391 10.063 39.4205 10.0802C41.6572 10.5351 43.1044 11.8643 43.7964 14.0242C43.8778 14.2785 43.9305 14.5432 43.9958 14.8033V14.8022ZM40.2902 39.244V35.6609H31.2014V39.244H40.2902Z" fill="#64ACFF"/>
<path d="M0 44.0491C0.255521 43.3593 0.418229 42.6157 0.784896 41.9912C1.82875 40.2163 3.44094 39.2893 5.50114 39.2767C10.3847 39.2481 15.2671 39.2492 20.1506 39.2744C23.1997 39.2893 25.5968 41.6131 25.6575 44.653C25.7171 47.6677 25.6724 50.6835 25.6712 53.6993C25.6712 53.7543 25.6563 53.8082 25.6415 53.9124H0C0 50.625 0 47.3365 0 44.0491Z" fill="#64ACFF"/>
<path d="M12.8274 20.9771C16.8561 20.9736 20.1504 24.245 20.1698 28.2691C20.1893 32.2945 16.8733 35.6185 12.8365 35.6208C8.79402 35.6231 5.49402 32.3208 5.4986 28.2783C5.50318 24.2587 8.79402 20.9805 12.8274 20.9771Z" fill="#64ACFF"/>
</g>
<defs>
<clipPath id="clip0_12025_5028">
<rect width="44" height="43.9141" fill="white" transform="translate(0 10)"/>
</clipPath>
</defs>
</svg>
