
<svg width="64" height="64" viewBox="0 0 64 64" fill="none" xmlns="http://www.w3.org/2000/svg">
<g clip-path="url(#clip0_12025_5068)">
<g clip-path="url(#clip1_12025_5068)">
<path fill-rule="evenodd" clip-rule="evenodd" d="M8.40175 35.7257C11.0742 39.5671 14.8305 42.6332 19.2753 44.4383L13.6342 53.0305C12.6504 54.529 10.3345 54.0049 10.0917 52.2288L9.66945 49.1401C9.51156 47.9851 8.3776 47.2294 7.25082 47.5283L3.9468 48.4048C2.21511 48.8642 0.839901 46.9306 1.84211 45.4456L8.40175 35.7257Z" fill="#64ACFF"/>
<path fill-rule="evenodd" clip-rule="evenodd" d="M42.6752 35.3108C40.0752 39.2009 36.3772 42.3364 31.967 44.2241L37.7802 52.714C38.7929 54.193 41.0982 53.624 41.3064 51.8436L41.6685 48.7472C41.8039 47.5893 42.923 46.8118 44.0553 47.0887L47.3758 47.9008C49.1161 48.3264 50.4534 46.3665 49.4225 44.9012L42.6752 35.3108Z" fill="#64ACFF"/>
<path fill-rule="evenodd" clip-rule="evenodd" d="M42.102 25.556C42.102 34.7625 34.5997 42.2648 25.3931 42.2648C16.1866 42.2648 8.68433 34.7625 8.68433 25.556C8.68433 16.3494 16.1866 8.84717 25.3931 8.84717C34.5997 8.84717 42.1019 16.3494 42.102 25.556ZM27.3705 16.8062C26.7491 14.8938 24.0436 14.8938 23.4222 16.8062L22.5336 19.541C22.2558 20.3963 21.4588 20.9753 20.5595 20.9753H17.6839C15.6731 20.9753 14.8371 23.5484 16.4638 24.7303L18.7903 26.4206C19.5178 26.9491 19.8222 27.886 19.5443 28.7413L18.6557 31.4761C18.0343 33.3885 20.2231 34.9787 21.8499 33.7968L24.1763 32.1066C24.9038 31.578 25.8889 31.578 26.6164 32.1066L28.9428 33.7968C30.5696 34.9787 32.7584 33.3885 32.137 31.4761L31.2484 28.7413C30.9705 27.886 31.2749 26.9491 32.0025 26.4206L34.3289 24.7303C35.9556 23.5484 35.1196 20.9753 33.1088 20.9753H30.2332C29.3339 20.9753 28.537 20.3963 28.2591 19.541L27.3705 16.8062Z" fill="#64ACFF"/>
</g>
</g>
<defs>
<clipPath id="clip0_12025_5068">
<rect width="64" height="64" fill="white"/>
</clipPath>
<clipPath id="clip1_12025_5068">
<rect width="51" height="51" fill="white" transform="translate(0 6)"/>
</clipPath>
</defs>
</svg>
