
<svg width="64" height="64" viewBox="0 0 64 64" fill="none" xmlns="http://www.w3.org/2000/svg">
<g clip-path="url(#clip0_12025_5088)">
<path d="M47.0012 52.6527C46.6358 53.4486 46.0042 53.6792 45.1519 53.6755C39.7682 53.651 34.3833 53.6596 28.9984 53.6731C28.7494 53.6731 28.4575 53.7748 28.2564 53.9232C25.4297 56.0154 21.5863 56.0178 18.7522 53.9306C18.54 53.7748 18.231 53.6743 17.9673 53.6731C12.537 53.6583 7.10672 53.662 1.67643 53.662C0.50771 53.662 0 53.1555 0 51.9893C0 43.8671 0 35.745 0 27.6216C0 26.4468 0.502805 25.9391 1.66539 25.9391C2.01367 25.9391 2.36073 25.9391 2.75439 25.9391C2.75439 26.161 2.75439 26.3401 2.75439 26.5191C2.75439 33.112 2.75439 39.7049 2.75439 46.2978C2.75439 48.9823 4.48968 50.7237 7.16681 50.7249C10.5013 50.7249 13.8357 50.7359 17.1702 50.72C18.6332 50.7139 19.9699 51.0805 21.211 51.8605C22.7268 52.8134 24.272 52.8158 25.789 51.8617C27.0288 51.0818 28.3656 50.7126 29.8298 50.7188C33.1802 50.7347 36.5294 50.7249 39.8798 50.7237C42.4932 50.7224 44.2444 48.9663 44.2456 46.3431C44.2468 39.7355 44.2456 33.1267 44.2456 26.5191V25.955C45.3211 25.9489 46.4396 25.668 47 26.9484V52.6515L47.0012 52.6527Z" fill="#64ACFF"/>
<path d="M24.4056 8.50123C25.2199 8.74037 26.0734 8.89243 26.8423 9.23336C32.0862 11.5573 33.4143 18.3268 29.4336 22.451C28.6598 23.253 28.2563 24.1152 28.2968 25.2324C28.336 26.3398 27.7805 26.8597 26.6768 26.8597C24.5355 26.8597 22.3943 26.861 20.2531 26.8597C19.2107 26.8597 18.638 26.325 18.6797 25.2777C18.7263 24.125 18.2946 23.2506 17.5147 22.4118C15.2717 19.9995 14.6217 17.1507 15.7083 14.0443C16.7936 10.9429 19.0746 9.14506 22.3195 8.58462C22.4054 8.5699 22.4863 8.52821 22.5697 8.5C23.1817 8.5 23.7936 8.5 24.4056 8.5V8.50123Z" fill="#64ACFF"/>
<path d="M9.54313 8.50123C10.4396 9.01752 11.341 9.52523 12.2301 10.0513C12.7746 10.3739 13.0309 10.911 12.9242 11.48C12.8163 12.0601 12.4692 12.4832 11.8916 12.5666C11.5433 12.6169 11.1264 12.5372 10.8063 12.3802C10.0545 12.0098 9.34569 11.5561 8.61601 11.1416C8.11075 10.8558 7.80048 10.4389 7.8152 9.85022C7.82991 9.24317 8.15367 8.82376 8.71412 8.58707C8.75091 8.57113 8.77666 8.52943 8.80855 8.5C9.05382 8.5 9.29786 8.5 9.54313 8.5V8.50123Z" fill="#64ACFF"/>
<path d="M38.1868 8.5C38.2604 8.5466 38.3303 8.59933 38.4063 8.64103C39.3874 9.17327 39.4684 10.4425 38.5302 11.0386C37.7318 11.545 36.9065 12.0098 36.0738 12.4574C35.3797 12.829 34.5752 12.5703 34.2196 11.9105C33.859 11.2434 34.0785 10.4597 34.7665 10.0513C35.6556 9.52278 36.557 9.01629 37.4535 8.50123C37.6987 8.50123 37.9428 8.50123 38.188 8.50123L38.1868 8.5Z" fill="#64ACFF"/>
<path d="M24.8853 49.2206V35.1666C25.3636 35.1261 25.8357 35.12 26.2956 35.0427C28.1315 34.7361 29.5418 33.1848 29.6571 31.3244C29.7073 30.5162 29.6718 29.7044 29.6963 28.8938C29.7012 28.727 29.7552 28.5185 29.8655 28.4045C30.7154 27.5129 31.1017 26.4521 31.06 25.2343C31.0477 24.8836 31.1458 24.6248 31.4071 24.3918C31.6339 24.1895 31.8571 23.9638 32.0129 23.7063C32.2753 23.2734 32.6261 23.1728 33.1129 23.179C35.3755 23.2047 37.6394 23.1888 39.902 23.1912C40.9444 23.1912 41.484 23.7296 41.4852 24.772C41.4852 31.9744 41.4852 39.1767 41.4852 46.3803C41.4852 47.4473 40.9493 47.9758 39.8714 47.9758C36.9808 47.9758 34.0903 48.0028 31.201 47.9672C29.0267 47.9403 26.8867 48.0212 24.8853 49.2206Z" fill="#64ACFF"/>
<path d="M22.084 49.1732C20.8748 48.5331 19.6349 48.1272 18.3092 48.0192C17.9291 47.9886 17.5465 47.9751 17.1651 47.9751C13.8318 47.9714 10.4974 47.9739 7.16415 47.9726C6.01996 47.9726 5.50244 47.4613 5.50244 46.333C5.50244 39.1613 5.50244 31.9896 5.50244 24.8179C5.50244 23.7117 6.02487 23.188 7.12736 23.188C9.4513 23.188 11.7765 23.1929 14.1004 23.1807C14.418 23.1794 14.6032 23.2898 14.8301 23.5167C15.5782 24.2635 16.0405 25.0607 16.0135 26.1877C15.9951 26.9848 16.4918 27.6777 17.0204 28.2995C17.1712 28.4761 17.2742 28.7446 17.2852 28.9776C17.3233 29.7098 17.2767 30.4468 17.3171 31.1777C17.4459 33.4416 19.191 35.091 21.4585 35.1205C21.656 35.1229 21.8534 35.1205 22.0827 35.1205L22.084 49.1732Z" fill="#64ACFF"/>
<path d="M26.8975 29.6338C26.8975 30.1967 26.9477 30.7485 26.884 31.2881C26.8104 31.9074 26.2389 32.3575 25.5828 32.3649C24.1909 32.3796 22.799 32.3808 21.4071 32.3649C20.6798 32.3563 20.1317 31.8314 20.0703 31.1079C20.0372 30.713 20.0544 30.3132 20.0544 29.9159C20.0544 29.8276 20.0765 29.738 20.0912 29.635H26.8975V29.6338Z" fill="#64ACFF"/>
<path d="M8.34994 16.764C8.80737 16.764 9.26603 16.7542 9.72223 16.7664C10.5046 16.7873 11.097 17.3771 11.1043 18.1252C11.1129 18.8941 10.5132 19.5012 9.70506 19.5135C8.80492 19.5269 7.90477 19.5257 7.00463 19.5135C6.19646 19.5024 5.59555 18.8978 5.59923 18.1314C5.60413 17.3673 6.20995 16.7799 7.02057 16.7652C7.46329 16.7566 7.90477 16.764 8.34749 16.764H8.34994Z" fill="#64ACFF"/>
<path d="M38.6528 19.5175C38.1953 19.5175 37.7367 19.5273 37.2805 19.515C36.4993 19.4942 35.9057 18.9043 35.8972 18.1562C35.8886 17.391 36.4919 16.779 37.2952 16.768C38.1953 16.7557 39.0955 16.7557 39.9956 16.768C40.805 16.779 41.4059 17.3812 41.4023 18.1489C41.3973 18.9166 40.7964 19.5003 39.9809 19.5175C39.5382 19.5261 39.0967 19.5187 38.654 19.5187L38.6528 19.5175Z" fill="#64ACFF"/>
</g>
<defs>
<clipPath id="clip0_12025_5088">
<rect width="47" height="46.9963" fill="white" transform="translate(0 8.5)"/>
</clipPath>
</defs>
</svg>
