
<svg width="64" height="64" viewBox="0 0 64 64" fill="none" xmlns="http://www.w3.org/2000/svg">
<path d="M0 54.6492V45.8952C0 44.7669 0.382261 43.8115 1.14678 43.0291C1.9113 42.2463 2.83826 41.8399 3.92766 41.81H11.1241C11.8275 41.81 12.4957 41.9822 13.1288 42.3265C13.7614 42.6708 14.2769 43.1511 14.6753 43.7674C15.8332 45.3595 17.2689 46.5984 18.9823 47.4843C20.6958 48.3703 22.5312 48.8132 24.4886 48.8132C26.4698 48.8132 28.3208 48.3703 30.0416 47.4843C31.7629 46.5984 33.1905 45.3595 34.3247 43.7674C34.7706 43.1511 35.304 42.6708 35.9249 42.3265C36.5459 41.9822 37.1886 41.81 37.8532 41.81H45.0496C46.1627 41.8399 47.0994 42.2463 47.8596 43.0291C48.6199 43.8115 49 44.7669 49 45.8952V54.6492H33.8263V49.1587C32.4945 50.1765 31.0371 50.957 29.4539 51.5001C27.8704 52.0432 26.2153 52.3148 24.4886 52.3148C22.8008 52.3148 21.163 52.0409 19.5753 51.4931C17.9875 50.9457 16.5201 50.1631 15.1731 49.1453V54.6492H0ZM6.48676 38.578C4.72116 38.578 3.20982 37.9495 1.95274 36.6924C0.695656 35.4353 0.0671146 33.924 0.0671146 32.1584C0.0671146 30.3535 0.695656 28.8324 1.95274 27.5952C3.20982 26.3576 4.72116 25.7388 6.48676 25.7388C8.29127 25.7388 9.81233 26.3576 11.05 27.5952C12.2876 28.8324 12.9064 30.3535 12.9064 32.1584C12.9064 33.924 12.2876 35.4353 11.05 36.6924C9.81233 37.9495 8.29127 38.578 6.48676 38.578ZM42.4905 38.578C40.7249 38.578 39.2135 37.9495 37.9565 36.6924C36.6994 35.4353 36.0708 33.924 36.0708 32.1584C36.0708 30.3535 36.6994 28.8324 37.9565 27.5952C39.2135 26.3576 40.7249 25.7388 42.4905 25.7388C44.295 25.7388 45.816 26.3576 47.0537 27.5952C48.2913 28.8324 48.9101 30.3535 48.9101 32.1584C48.9101 33.924 48.2913 35.4353 47.0537 36.6924C45.816 37.9495 44.295 38.578 42.4905 38.578Z" fill="#64ACFF"/>
<path d="M24.4893 45.0142C23.0855 45.0142 21.7558 44.6887 20.5003 44.0378C17.5105 42.4878 16.3284 40.4809 15.4783 39.3344C19.2961 37.0828 18.3276 28.4722 16.3272 27.4434C16.4259 27.2501 17.2045 27.0042 17.5105 26.9209C19.9811 26.249 22.3074 25.9131 24.4893 25.9131C26.6712 25.9131 28.9974 26.249 31.468 26.9209C31.8086 27.0136 32.6512 27.2872 33.2181 27.691C31.468 29.4211 30.5888 36.1092 33.8765 39.3344C33.0653 40.5198 29.8106 43.4355 28.5476 44.067C27.2847 44.6984 25.9319 45.0142 24.4893 45.0142ZM24.4893 22.5463C22.7237 22.5463 21.2123 21.9177 19.9552 20.6606C18.6981 19.4036 18.0696 17.8922 18.0696 16.1266C18.0696 14.3218 18.6981 12.8007 19.9552 11.5635C21.2123 10.3258 22.7237 9.70703 24.4893 9.70703C26.2938 9.70703 27.8148 10.3258 29.0524 11.5635C30.2901 12.8007 30.9089 14.3218 30.9089 16.1266C30.9089 17.8922 30.2901 19.4036 29.0524 20.6606C27.8148 21.9177 26.2938 22.5463 24.4893 22.5463Z" fill="#64ACFF"/>
</svg>
